# xmcd
#
# Track frame offsets:
#	150
#	17252
#	29190
#	49725
#	64902
#	84835
#	105787
#	125605
#	140895
#	154980
#	173665
#	188667
#	205240
#	215297
#	229252
#	240192
#	257920
#	274147
#	286090
#	295807
#	312322
#
# Disc length: 4382 seconds
#
# Revision: 1
# Processed by: cddbd v1.5.2PL0 Copyright (c) Steve Scherf et al.
# Submitted via: EZCDAudioConverter 5.5.0.1
#
DISCID=2a111c15
DTITLE=Various Artist - Hightone Records~The First Ten Years
DYEAR=1994
DGENRE=Blues
TTITLE0=Robert Cray - Playin' in the Dirt
TTITLE1=Dave Alvin - Fourth of July
TTITLE2=Phil Alvin - County Fair
TTITLE3=Otis Rush - Tore Up
TTITLE4=Rosie Flores and Joe Ely - Love and Danger
TTITLE5=Phillip Walker - Don't Be Afraid of the Dark
TTITLE6=Gary Stewart - Dark End of the Street
TTITLE7=Archie Roach - Charcoal Lane
TTITLE8=Joe Louis Walker - I'll Get to Heaven on My Own
TTITLE9=Dick Dale - Scalped
TTITLE10=Jimmie Dale Gilmore - Deep Eddy Blues
TTITLE11=The Loved Ones - Pretty Baby
TTITLE12=The Lonesome Strangers - We Used to Fuss
TTITLE13=Heather Myles - Just Like Old Times
TTITLE14=Sonny Burgess and Dave Alvin - Tennessee Border
TTITLE15=Joe Ely - Lord  of the Highway
TTITLE16=Rev. Billy C. Wirtz - Teenie Weenie Meanie
TTITLE17=Big Sandy and His Flyrite Boys - Hi-Billy Music
TTITLE18=Mint Juleps - Ain't He Got Nerve
TTITLE19=Billy Lee Riley - Calhoun City
TTITLE20=Chris Gaffney - Quiet Desperation
EXTD=
EXTT0=
EXTT1=
EXTT2=
EXTT3=
EXTT4=
EXTT5=
EXTT6=
EXTT7=
EXTT8=
EXTT9=
EXTT10=
EXTT11=
EXTT12=
EXTT13=
EXTT14=
EXTT15=
EXTT16=
EXTT17=
EXTT18=
EXTT19=
EXTT20=
PLAYORDER=
